{"title":"Dazed and Confused &amp; BluRay Xtras (1993) 1080p","uid":12144314,"size":4641101286,"categoryP":"video","categoryS":"movies","magnet":"?xt=urn:btih:daf22730492deb7045fed64fd36e1d60d6aa2e2a&amp;dn=Dazed+and+Confused+%26amp%3B+BluRay+Xtras+%281993%29+1080p&amp;tr=udp%3A%2F%2Ftracker.openbittorrent.com%3A80&amp;tr=udp%3A%2F%2Fopen.demonii.com%3A1337&amp;tr=udp%3A%2F%2Ftracker.coppersurfer.tk%3A6969&amp;tr=udp%3A%2F%2Fexodus.desync.com%3A6969","seeders":1,"leechers":0,"uploader":"AlienMethod","files":21,"time":1437432193,"description":"x264/mp4\n6-Channel AC3@640kbps (audio 1)\n2-Channel AAC@192kbps (audio 2)\nEnglish Subs.\nBluRay Extras Included\n\n\n&quot;The adventures of incoming high school and junior high students on the \nlast day of school, in May of 1976.&quot;\n\nGeneral\nComplete name : F:TorrentsDazed and Confused &amp; BluRay Xtras (1993) 1080p\nDazed &amp; Confused (1993) 1080p.mp4\nFormat : MPEG-4\nFormat profile : Base Media\nCodec ID : isom\nFile size : 3.94 GiB\nDuration : 1h 42mn\nOverall bit rate mode : Variable\nOverall bit rate : 5 509 Kbps\nEncoded date : UTC 2015-07-20 12:48:19\nTagged date : UTC 2015-07-20 12:48:19\nWriting application : My MP4Box GUI 0.6.0.6 \n\nVideo\nID : 1\nFormat : AVC\nFormat/Info : Advanced Video Codec\nFormat profile : &lt;a class=&quot;__cf_email__&quot; href=&quot;/cdn-cgi/l/email-protection&quot; data-cfemail=&quot;622a0b050a222e564c52&quot;&gt;[email&amp;#160;protected]&lt;/a&gt;&lt;script data-cfhash='f9e31' type=&quot;text/javascript&quot;&gt;\n/* &lt;![CDATA[ */!function(){try{var t=&quot;currentScript&quot;in document?document.currentScript:function(){for(var t=document.getElementsByTagName(&quot;script&quot;),e=t.length;e--;)if(t[e].getAttribute(&quot;data-cfhash&quot;))return t[e]}();if(t&amp;&amp;t.previousSibling){var e,r,n,i,c=t.previousSibling,a=c.getAttribute(&quot;data-cfemail&quot;);if(a){for(e=&quot;&quot;,r=parseInt(a.substr(0,2),16),n=2;a.length-n;n+=2)i=parseInt(a.substr(n,2),16)^r,e+=String.fromCharCode(i);e=document.createTextNode(e),c.parentNode.replaceChild(e,c)}t.parentNode.removeChild(t);}}catch(u){}}()/* ]]&gt; */&lt;/script&gt;\nFormat settings, CABAC : Yes\nFormat settings, ReFrames : 4 frames\nCodec ID : avc1\nCodec ID/Info : Advanced Video Coding\nDuration : 1h 42mn\nBit rate : 4 644 Kbps\nMaximum bit rate : 14.6 Mbps\nWidth : 1 904 pixels\nHeight : 1 040 pixels\nDisplay aspect ratio : 1.85:1\nFrame rate mode : Constant\nFrame rate : 23.976 fps\nColor space : YUV\nChroma subsampling : 4:2:0\nBit depth : 8 bits\nScan type : Progressive\nBits/(Pixel*Frame) : 0.098\nStream size : 3.32 GiB (84%)\nTitle : Dazed &amp; ConfusedVideoEncode.h264\nWriting library : x264 core 142 r2479 dd79a61\nEncoded date : UTC 2015-07-20 12:48:19\nTagged date : UTC 2015-07-20 12:49:10\n\nAudio #1\nID : 2\nFormat : AC-3\nFormat/Info : Audio Coding 3\nMode extension : CM (complete main)\nFormat settings, Endianness : Big\nCodec ID : ac-3\nDuration : 1h 42mn\nBit rate mode : Constant\nBit rate : 640 Kbps\nChannel(s) : 6 channels\nChannel positions : Front: L C R, Side: L R, LFE\nSampling rate : 48.0 KHz\nBit depth : 16 bits\nCompression mode : Lossy\nStream size : 469 MiB (12%)\nTitle : Dazed &amp; Confused AC3.ac3\nEncoded date : UTC 2015-07-20 12:48:47\nTagged date : UTC 2015-07-20 12:49:10\n\nAudio #2\nID : 3\nFormat : AAC\nFormat/Info : Advanced Audio Codec\nFormat profile : LC\nCodec ID : 40\nDuration : 1h 42mn\nBit rate mode : Variable\nBit rate : 222 Kbps\nMaximum bit rate : 256 Kbps\nChannel(s) : 2 channels\nChannel positions : Front: L R\nSampling rate : 48.0 KHz\nCompression mode : Lossy\nStream size : 163 MiB (4%)\nTitle : Dazed &amp; Confused AAC.m4a\nEncoded date : UTC 2015-07-20 12:48:55\nTagged date : UTC 2015-07-20 12:49:10","torrent":{"xt":"urn:btih:daf22730492deb7045fed64fd36e1d60d6aa2e2a","amp;dn":"Dazed+and+Confused+%26amp%3B+BluRay+Xtras+%281993%29+1080p","amp;tr":["udp%3A%2F%2Ftracker.openbittorrent.com%3A80","udp%3A%2F%2Fopen.demonii.com%3A1337","udp%3A%2F%2Ftracker.coppersurfer.tk%3A6969","udp%3A%2F%2Fexodus.desync.com%3A6969"],"infoHash":"daf22730492deb7045fed64fd36e1d60d6aa2e2a","infoHashBuffer":{"type":"Buffer","data":[218,242,39,48,73,45,235,112,69,254,214,79,211,110,29,96,214,170,46,42]},"announce":[],"urlList":[]}}